#  
#  Wavefront OBJ
#  

# 8 vertices
v 2.500000 2.500000 2.500000
v 2.500000 2.500000 -2.500000
v 2.500000 -2.500000 2.500000
v 2.500000 -2.500000 -2.500000
v -2.500000 2.500000 2.500000
v -2.500000 2.500000 -2.500000
v -2.500000 -2.500000 2.500000
v -2.500000 -2.500000 -2.500000

# 8 normals
vn 0.577350 0.577350 0.577350
vn 0.408248 0.408248 -0.816497
vn 0.408248 -0.816497 0.408248
vn 0.816497 -0.408248 -0.408248
vn -0.816497 0.408248 0.408248
vn -0.408248 0.816497 -0.408248
vn -0.408248 -0.408248 0.816497
vn -0.577350 -0.577350 -0.577350

# 2 groups
# 12 faces (triangles)

g  Object__0
f 1//1 3//3 4//4
f 1//1 4//4 2//2
f 5//5 8//8 7//7
f 5//5 6//6 8//8
f 1//1 6//6 5//5
f 1//1 2//2 6//6
f 3//3 7//7 8//8
f 3//3 8//8 4//4
f 1//1 5//5 7//7
f 1//1 7//7 3//3
f 2//2 4//4 8//8
f 2//2 8//8 6//6

g default

